<svg xmlns="http://www.w3.org/2000/svg" width="24" height="24" viewBox="0 0 24 24" fill="none">
<path d="M1.01272 11.9195L0.0190286 12.0317L1.01272 11.9195C1.02538 12.0317 1.04017 12.0984 1.10073 12.3524C2.75599 19.294 8.63623 21.9135 11.1562 22.7299C11.5879 22.8698 11.6901 22.9009 12 22.9009C12.3099 22.9009 12.4121 22.8698 12.8438 22.7299C15.3638 21.9135 21.244 19.294 22.8993 12.3524C22.9598 12.0984 22.9746 12.0317 22.9873 11.9195C22.9997 11.8098 23.0002 11.7239 22.9973 11.4102C22.9533 6.70449 22.3475 4.2723 20.9089 2.9142C19.4531 1.5397 16.8733 0.999999 12 0.999999C7.1267 0.999999 4.54693 1.53969 3.09106 2.9142C1.65255 4.2723 1.04666 6.70448 1.00268 11.4102C0.999753 11.7239 1.00034 11.8098 1.01272 11.9195Z" stroke="white" stroke-width="2" stroke-linecap="round" stroke-linejoin="round"/>
<path fill-rule="evenodd" clip-rule="evenodd" d="M15.7071 9.70711C16.0976 9.31658 16.0976 8.68342 15.7071 8.29289C15.3166 7.90237 14.6834 7.90237 14.2929 8.29289L12 10.5858L9.70711 8.29289C9.31658 7.90237 8.68342 7.90237 8.29289 8.29289C7.90237 8.68342 7.90237 9.31658 8.29289 9.70711L10.5858 12L8.29289 14.2929C7.90237 14.6834 7.90237 15.3166 8.29289 15.7071C8.68342 16.0976 9.31658 16.0976 9.70711 15.7071L12 13.4142L14.2929 15.7071C14.6834 16.0976 15.3166 16.0976 15.7071 15.7071C16.0976 15.3166 16.0976 14.6834 15.7071 14.2929L13.4142 12L15.7071 9.70711Z" fill="white"/>
</svg>